<?xml version="1.0" encoding="UTF-8" standalone="no"?>
<!DOCTYPE svg PUBLIC "-//W3C//DTD SVG 1.1//EN"
 "http://www.w3.org/Graphics/SVG/1.1/DTD/svg11.dtd">
<!-- Generated by graphviz version 5.0.0 (20220707.1540)
 -->
<!-- Title: dependencies Pages: 1 -->
<svg width="196pt" height="174pt"
 viewBox="0.00 0.00 196.00 173.80" xmlns="http://www.w3.org/2000/svg" xmlns:xlink="http://www.w3.org/1999/xlink">
<g id="graph0" class="graph" transform="scale(1 1) rotate(0) translate(4 169.8)">
<title>dependencies</title>
<polygon fill="white" stroke="transparent" points="-4,4 -4,-169.8 192,-169.8 192,4 -4,4"/>
<text text-anchor="middle" x="94" y="-8.2" font-family="sans-serif" font-size="14.00">dependencies</text>
<g id="clust1" class="cluster">
<title>cluster_MessagingModule</title>
<polygon fill="none" stroke="black" stroke-dasharray="1,5" points="8,-32.8 8,-157.8 180,-157.8 180,-32.8 8,-32.8"/>
</g>
<g id="clust4" class="cluster">
<title>cluster_MessagingModule_exports</title>
<polygon fill="none" stroke="black" points="16,-97.8 16,-149.8 172,-149.8 172,-97.8 16,-97.8"/>
</g>
<!-- CreateBookPublisher  -->
<g id="node1" class="node">
<title>CreateBookPublisher </title>
<polygon fill="#fb8072" stroke="black" points="163.76,-141.8 24.24,-141.8 24.24,-105.8 163.76,-105.8 163.76,-141.8"/>
<text text-anchor="middle" x="94" y="-119.6" font-family="Times,serif" font-size="14.00">CreateBookPublisher </text>
</g>
<!-- MessagingModule -->
<g id="node2" class="node">
<title>MessagingModule</title>
<polygon fill="#8dd3c7" stroke="black" points="154.21,-76.8 151.21,-80.8 130.21,-80.8 127.21,-76.8 33.79,-76.8 33.79,-40.8 154.21,-40.8 154.21,-76.8"/>
<text text-anchor="middle" x="94" y="-54.6" font-family="Times,serif" font-size="14.00">MessagingModule</text>
</g>
<!-- MessagingModule&#45;&gt;CreateBookPublisher  -->
<g id="edge1" class="edge">
<title>MessagingModule&#45;&gt;CreateBookPublisher </title>
<path fill="none" stroke="black" stroke-dasharray="5,2" d="M94,-76.91C94,-76.91 94,-95.79 94,-95.79"/>
<polygon fill="black" stroke="black" points="90.5,-95.79 94,-105.79 97.5,-95.79 90.5,-95.79"/>
</g>
</g>
</svg>
